<svg xmlns="http://www.w3.org/2000/svg" width="50mm" height="50mm" viewBox="0 0 200 200">
  <defs>
    <linearGradient id="blueGrad" x1="0%" y1="0%" x2="100%" y2="100%">
      <stop offset="0%" stop-color="#0C6BFF"/>
      <stop offset="100%" stop-color="#19A7FF"/>
    </linearGradient>
    <path id="topArc" d="M 20 100 A 80 80 0 0 1 180 100" />
    <path id="bottomArc" d="M 180 100 A 80 80 0 0 1 20 100" />
  </defs>

  <circle cx="100" cy="100" r="98" fill="#0B2F63"/>
  <circle cx="100" cy="100" r="86" fill="#FFFFFF"/>
  <circle cx="100" cy="100" r="78" fill="#F8FBFF"/>

  <text font-family="Arial, Helvetica, sans-serif" font-size="15" font-weight="700" letter-spacing="3" fill="#0B2F63">
    <textPath href="#topArc" startOffset="50%" text-anchor="middle">LOVE YOU</textPath>
  </text>

  <text font-family="Pretendard, Apple SD Gothic Neo, Noto Sans KR, sans-serif" font-size="11" font-weight="700" letter-spacing="1.5" fill="#0B2F63">
    <textPath href="#bottomArc" startOffset="50%" text-anchor="middle">사랑합니다</textPath>
  </text>

  <g transform="translate(100 92)">
    <rect x="-24" y="-24" width="48" height="48" rx="12" fill="url(#blueGrad)"/>
    <path d="M -12 4 C -4 -10, 4 -10, 12 4 S 28 18, 28 18" fill="none" stroke="#FFFFFF" stroke-width="4" stroke-linecap="round"/>
    <circle cx="-10" cy="-8" r="2.4" fill="#FFFFFF"/>
    <circle cx="11" cy="-13" r="2" fill="#FFFFFF"/>
    <circle cx="18" cy="7" r="2" fill="#FFFFFF"/>
    <circle cx="-18" cy="13" r="1.8" fill="#FFFFFF" opacity="0.9"/>
  </g>

  <text x="100" y="140" text-anchor="middle" font-family="Arial, Helvetica, sans-serif" font-size="22" font-weight="800" letter-spacing="1" fill="#0B2F63">WAVUS</text>
  <text x="100" y="156" text-anchor="middle" font-family="Pretendard, Apple SD Gothic Neo, Noto Sans KR, sans-serif" font-size="9" font-weight="500" fill="#4C678A">gift with love</text>

  <circle cx="100" cy="100" r="92" fill="none" stroke="#D8E6FF" stroke-width="1.2"/>
</svg>
